<svg width="1077" height="914" xmlns="http://www.w3.org/2000/svg"><g><path d="M-49,-58L-80,261L-42,125Z" fill="#f8ffd9" stroke="#f8ffd9"/><path d="M-49,-58L-42,125L42,83Z" fill="#fcffdc" stroke="#fcffdc"/><path d="M-49,-58L42,83L64,-126Z" fill="#fcfee2" stroke="#fcfee2"/><path d="M64,-126L42,83L244,70Z" fill="#eaf7d6" stroke="#eaf7d6"/><path d="M64,-126L244,70L290,-100Z" fill="#d9f0da" stroke="#d9f0da"/><path d="M64,-126L290,-100L622,-93Z" fill="#bce5de" stroke="#bce5de"/><path d="M64,-126L622,-93L963,-105Z" fill="#96d0e1" stroke="#96d0e1"/><path d="M290,-100L244,70L381,-61Z" fill="#c0e6db" stroke="#c0e6db"/><path d="M290,-100L381,-61L622,-93Z" fill="#a6dde1" stroke="#a6dde1"/><path d="M381,-61L244,70L446,107Z" fill="#b3e3d5" stroke="#b3e3d5"/><path d="M381,-61L446,107L598,72Z" fill="#9cd9d8" stroke="#9cd9d8"/><path d="M381,-61L598,72L622,-93Z" fill="#98d2de" stroke="#98d2de"/><path d="M622,-93L598,72L724,-60Z" fill="#8fc3da" stroke="#8fc3da"/><path d="M622,-93L724,-60L963,-105Z" fill="#91afd4" stroke="#91afd4"/><path d="M724,-60L598,72L776,96Z" fill="#8dbacf" stroke="#8dbacf"/><path d="M724,-60L776,96L952,52Z" fill="#8ba7c5" stroke="#8ba7c5"/><path d="M724,-60L952,52L963,-105Z" fill="#899dc5" stroke="#899dc5"/><path d="M963,-105L952,52L1093,-80Z" fill="#8089b7" stroke="#8089b7"/><path d="M963,-105L1093,-80L1299,-85Z" fill="#8080ab" stroke="#8080ab"/><path d="M1093,-80L952,52L1122,75Z" fill="#7f80ab" stroke="#7f80ab"/><path d="M1093,-80L1122,75L1299,-85Z" fill="#8080a2" stroke="#8080a2"/><path d="M1299,-85L1122,75L1281,70Z" fill="#7e8095" stroke="#7e8095"/><path d="M1299,-85L1281,70L1281,240Z" fill="#7b8089" stroke="#7b8089"/><path d="M1299,-85L1281,240L1308,609Z" fill="#4e7b86" stroke="#4e7b86"/><path d="M-42,125L-80,261L53,260Z" fill="#dafcd6" stroke="#dafcd6"/><path d="M-42,125L53,260L42,83Z" fill="#ebfdd1" stroke="#ebfdd1"/><path d="M42,83L53,260L228,218Z" fill="#d0f6cb" stroke="#d0f6cb"/><path d="M42,83L228,218L244,70Z" fill="#d7f3c7" stroke="#d7f3c7"/><path d="M244,70L228,218L446,107Z" fill="#b6e6c9" stroke="#b6e6c9"/><path d="M446,107L228,218L447,220Z" fill="#98dfcd" stroke="#98dfcd"/><path d="M446,107L447,220L598,72Z" fill="#92d6cd" stroke="#92d6cd"/><path d="M598,72L447,220L616,252Z" fill="#7ccece" stroke="#7ccece"/><path d="M598,72L616,252L776,96Z" fill="#83c0c9" stroke="#83c0c9"/><path d="M776,96L616,252L794,265Z" fill="#6fb2c5" stroke="#6fb2c5"/><path d="M776,96L794,265L915,293Z" fill="#67a2bb" stroke="#67a2bb"/><path d="M776,96L915,293L952,52Z" fill="#7a9cb3" stroke="#7a9cb3"/><path d="M952,52L915,293L1131,218Z" fill="#6487a6" stroke="#6487a6"/><path d="M952,52L1131,218L1122,75Z" fill="#78809e" stroke="#78809e"/><path d="M1122,75L1131,218L1281,70Z" fill="#778091" stroke="#778091"/><path d="M1281,70L1131,218L1281,240Z" fill="#687e8b" stroke="#687e8b"/><path d="M-80,261L-83,754L-56,455Z" fill="#96dcdf" stroke="#96dcdf"/><path d="M-80,261L-56,455L53,260Z" fill="#b9f3da" stroke="#b9f3da"/><path d="M53,260L-56,455L92,466Z" fill="#a0ead9" stroke="#a0ead9"/><path d="M53,260L92,466L239,413Z" fill="#92e5d1" stroke="#92e5d1"/><path d="M53,260L239,413L228,218Z" fill="#a1e9cc" stroke="#a1e9cc"/><path d="M228,218L239,413L419,388Z" fill="#78dad0" stroke="#78dad0"/><path d="M228,218L419,388L447,220Z" fill="#7cdbcf" stroke="#7cdbcf"/><path d="M447,220L419,388L616,252Z" fill="#61cfd2" stroke="#61cfd2"/><path d="M616,252L419,388L567,454Z" fill="#46c2d5" stroke="#46c2d5"/><path d="M616,252L567,454L742,462Z" fill="#36b1d3" stroke="#36b1d3"/><path d="M616,252L742,462L794,265Z" fill="#49abca" stroke="#49abca"/><path d="M794,265L742,462L915,293Z" fill="#4399c2" stroke="#4399c2"/><path d="M915,293L742,462L959,434Z" fill="#308abd" stroke="#308abd"/><path d="M915,293L959,434L1131,218Z" fill="#3d7eab" stroke="#3d7eab"/><path d="M1131,218L959,434L1148,442Z" fill="#2e70a4" stroke="#2e70a4"/><path d="M1131,218L1148,442L1281,240Z" fill="#417794" stroke="#417794"/><path d="M1281,240L1148,442L1257,434Z" fill="#2c6f93" stroke="#2c6f93"/><path d="M1281,240L1257,434L1308,609Z" fill="#21678d" stroke="#21678d"/><path d="M-56,455L-83,754L-54,584Z" fill="#93c5d5" stroke="#93c5d5"/><path d="M-56,455L-54,584L92,466Z" fill="#95dada" stroke="#95dada"/><path d="M92,466L-54,584L111,628Z" fill="#89cad1" stroke="#89cad1"/><path d="M92,466L111,628L211,567Z" fill="#79c5ca" stroke="#79c5ca"/><path d="M92,466L211,567L239,413Z" fill="#75d0ce" stroke="#75d0ce"/><path d="M239,413L211,567L390,597Z" fill="#58bfcf" stroke="#58bfcf"/><path d="M239,413L390,597L419,388Z" fill="#52c4d2" stroke="#52c4d2"/><path d="M419,388L390,597L567,454Z" fill="#3ab9d6" stroke="#3ab9d6"/><path d="M567,454L390,597L606,580Z" fill="#2ca6d1" stroke="#2ca6d1"/><path d="M567,454L606,580L742,462Z" fill="#259fd1" stroke="#259fd1"/><path d="M742,462L606,580L791,631Z" fill="#2287c7" stroke="#2287c7"/><path d="M742,462L791,631L979,552Z" fill="#1e75bc" stroke="#1e75bc"/><path d="M742,462L979,552L959,434Z" fill="#2078b9" stroke="#2078b9"/><path d="M959,434L979,552L1148,442Z" fill="#1964a9" stroke="#1964a9"/><path d="M1148,442L979,552L1116,631Z" fill="#1252a0" stroke="#1252a0"/><path d="M1148,442L1116,631L1308,609Z" fill="#124e91" stroke="#124e91"/><path d="M1148,442L1308,609L1257,434Z" fill="#165b90" stroke="#165b90"/><path d="M-54,584L-83,754L111,628Z" fill="#94b7ca" stroke="#94b7ca"/><path d="M111,628L-83,754L122,725Z" fill="#8aa9be" stroke="#8aa9be"/><path d="M111,628L122,725L211,567Z" fill="#79b0c0" stroke="#79b0c0"/><path d="M211,567L122,725L227,789Z" fill="#6fa0b8" stroke="#6fa0b8"/><path d="M211,567L227,789L390,597Z" fill="#5ba2c1" stroke="#5ba2c1"/><path d="M390,597L227,789L451,806Z" fill="#4989b6" stroke="#4989b6"/><path d="M390,597L451,806L606,580Z" fill="#328fc4" stroke="#328fc4"/><path d="M606,580L451,806L606,804Z" fill="#2877b9" stroke="#2877b9"/><path d="M606,580L606,804L734,766Z" fill="#226db7" stroke="#226db7"/><path d="M606,580L734,766L791,631Z" fill="#2470bc" stroke="#2470bc"/><path d="M791,631L734,766L966,739Z" fill="#2050a8" stroke="#2050a8"/><path d="M791,631L966,739L979,552Z" fill="#1b53a9" stroke="#1b53a9"/><path d="M979,552L966,739L1116,631Z" fill="#14419c" stroke="#14419c"/><path d="M1116,631L966,739L1092,722Z" fill="#132e8f" stroke="#132e8f"/><path d="M1116,631L1092,722L1247,807Z" fill="#132981" stroke="#132981"/><path d="M1116,631L1247,807L1308,609Z" fill="#14317e" stroke="#14317e"/><path d="M1308,609L1247,807L1285,947Z" fill="#121967" stroke="#121967"/><path d="M-83,754L-54,1128L-55,964Z" fill="#8e809f" stroke="#8e809f"/><path d="M-83,754L-55,964L80,955Z" fill="#8f81a5" stroke="#8f81a5"/><path d="M-83,754L80,955L122,725Z" fill="#8a90ad" stroke="#8a90ad"/><path d="M122,725L80,955L227,789Z" fill="#7687a3" stroke="#7687a3"/><path d="M227,789L80,955L239,918Z" fill="#6d7498" stroke="#6d7498"/><path d="M227,789L239,918L451,806Z" fill="#5174a3" stroke="#5174a3"/><path d="M451,806L239,918L450,971Z" fill="#41619b" stroke="#41619b"/><path d="M451,806L450,971L605,935Z" fill="#2b569c" stroke="#2b569c"/><path d="M451,806L605,935L606,804Z" fill="#265ba5" stroke="#265ba5"/><path d="M606,804L605,935L734,766Z" fill="#2051a4" stroke="#2051a4"/><path d="M734,766L605,935L723,979Z" fill="#1f3d97" stroke="#1f3d97"/><path d="M734,766L723,979L947,920Z" fill="#1e2c8e" stroke="#1e2c8e"/><path d="M734,766L947,920L966,739Z" fill="#1a3192" stroke="#1a3192"/><path d="M966,739L947,920L1061,926Z" fill="#11137c" stroke="#11137c"/><path d="M966,739L1061,926L1092,722Z" fill="#121a81" stroke="#121a81"/><path d="M1092,722L1061,926L1247,807Z" fill="#111273" stroke="#111273"/><path d="M1247,807L1061,926L1285,947Z" fill="#10015f" stroke="#10015f"/><path d="M-55,964L-54,1128L64,1132Z" fill="#8c8086" stroke="#8c8086"/><path d="M-55,964L64,1132L80,955Z" fill="#877e8c" stroke="#877e8c"/><path d="M80,955L64,1132L281,1064Z" fill="#72767e" stroke="#72767e"/><path d="M80,955L281,1064L239,918Z" fill="#67718a" stroke="#67718a"/><path d="M239,918L281,1064L450,971Z" fill="#4a668c" stroke="#4a668c"/><path d="M450,971L281,1064L408,1120Z" fill="#3e6182" stroke="#3e6182"/><path d="M450,971L408,1120L590,1085Z" fill="#2a5983" stroke="#2a5983"/><path d="M450,971L590,1085L605,935Z" fill="#24518d" stroke="#24518d"/><path d="M605,935L590,1085L723,979Z" fill="#1d4589" stroke="#1d4589"/><path d="M723,979L590,1085L772,1063Z" fill="#1d3c7e" stroke="#1d3c7e"/><path d="M723,979L772,1063L947,920Z" fill="#1c287c" stroke="#1c287c"/><path d="M947,920L772,1063L957,1071Z" fill="#151b6e" stroke="#151b6e"/><path d="M947,920L957,1071L1061,926Z" fill="#100c6a" stroke="#100c6a"/><path d="M1061,926L957,1071L1086,1064Z" fill="#0d045d" stroke="#0d045d"/><path d="M1061,926L1086,1064L1285,947Z" fill="#0e0057" stroke="#0e0057"/><path d="M1285,947L1086,1064L1249,1069Z" fill="#0d0048" stroke="#0d0048"/><path d="M64,1132L408,1120L281,1064Z" fill="#596c76" stroke="#596c76"/><path d="M408,1120L1249,1069L957,1071Z" fill="#151f65" stroke="#151f65"/><path d="M408,1120L957,1071L590,1085Z" fill="#1b4379" stroke="#1b4379"/><path d="M590,1085L957,1071L772,1063Z" fill="#1d2f73" stroke="#1d2f73"/><path d="M957,1071L1249,1069L1086,1064Z" fill="#0c004d" stroke="#0c004d"/></g></svg>