<?xml version="1.0" encoding="utf-8"?>
<!-- Generator: Adobe Illustrator 15.0.0, SVG Export Plug-In . SVG Version: 6.00 Build 0)  -->
<!DOCTYPE svg PUBLIC "-//W3C//DTD SVG 1.1//EN" "http://www.w3.org/Graphics/SVG/1.1/DTD/svg11.dtd">
<svg version="1.1" id="Layer_1" xmlns="http://www.w3.org/2000/svg" xmlns:xlink="http://www.w3.org/1999/xlink" x="0px" y="0px"
	 width="2000px" height="800px" viewBox="0 0 2000 800" enable-background="new 0 0 2000 800" xml:space="preserve">
<rect x="-15.852" y="-23.975" fill="#161D23" width="2040.741" height="844.444"/>
<g>
	<rect x="180.864" y="78.494" fill="#C44C2C" width="296.296" height="75.309"/>
	<rect x="240.864" y="193.802" fill="#C4C4C4" width="621.482" height="75.309"/>
	<rect x="1137.654" y="-37.654" fill="#C44C2C" width="296.295" height="75.309"/>
	<rect x="1137.654" y="436.42" fill="#C44C2C" width="153.088" height="75.309"/>
	<rect x="1197.654" y="77.654" fill="#C4C4C4" width="568.396" height="75.309"/>
	<rect x="1197.654" y="193.802" fill="#C4C4C4" width="621.48" height="75.309"/>
	<rect x="1197.654" y="316.024" fill="#C4C4C4" width="425.186" height="75.309"/>
	<rect x="1137.654" y="563.58" fill="#C44C2C" width="296.295" height="75.309"/>
	<rect x="1197.654" y="678.889" fill="#C4C4C4" width="568.396" height="75.309"/>
	<rect x="1197.654" y="795.037" fill="#C4C4C4" width="621.48" height="75.309"/>
	<rect x="240.864" y="307.321" fill="#C4C4C4" width="551.111" height="75.309"/>
	<rect x="180.864" y="423.556" fill="#C44C2C" width="241.976" height="75.309"/>
	<rect x="240.864" y="539.604" fill="#C4C4C4" width="241.976" height="75.309"/>
	<rect x="240.864" y="-37.654" fill="#C4C4C4" width="358.52" height="75.309"/>
	<rect x="301.852" y="661.21" fill="#C44C2C" width="343.21" height="75.309"/>
	<rect x="180.864" y="783.432" fill="#C44C2C" width="296.296" height="75.309"/>
</g>
</svg>
